
<svg xmlns="http://www.w3.org/2000/svg" version="1.1" xmlns:xlink="http://www.w3.org/1999/xlink" preserveAspectRatio="none" x="0px" y="0px" width="19px" height="19px" viewBox="0 0 19 19">
<defs>
<g id="Mobile_Icon_Symbols_selTimeline_0_Layer0_0_FILL">
<path fill="#0099FF" stroke="none" d="
M 12.65 -12.35
Q 7.45 -17.55 0.1 -17.55 -7.5 -17.55 -12.65 -12.35 -17.9 -7.25 -17.9 0 -17.9 7.25 -12.65 12.45 -7.5 17.55 0.1 17.55 7.45 17.55 12.65 12.45 17.9 7.25 17.9 0 17.9 -7.25 12.65 -12.35
M 9.3 -3.3
Q 8.75 -3.3 8.3 -3.55
L 4.25 2.75
Q 4.45 2.8 4.6 3 5.3 3.65 5.3 4.55 5.3 5.45 4.6 6 4.15 6.6 3.3 6.6 2.4 6.6 1.7 6 1.1 5.45 1.1 4.55 1.1 3.75 1.65 3.05
L -1.6 -0.2
Q -2.15 0.3 -2.85 0.3 -3.5 0.3 -4.15 -0.1
L -7.55 4.45
Q -7.1 5 -7.1 5.65 -7.1 6.55 -7.7 7.15 -8.35 7.75 -9.2 7.75 -10.1 7.75 -10.75 7.15 -11.35 6.55 -11.35 5.65 -11.35 4.7 -10.75 4.2 -10.1 3.6 -9.2 3.6 -8.35 3.6 -7.7 4.2 -7.6 4.3 -7.55 4.45
L -4.15 -0.1
Q -4.25 -0.3 -4.45 -0.4 -5 -1 -5 -1.9 -5 -2.7 -4.45 -3.35 -3.7 -4.05 -2.85 -4.05 -2 -4.05 -1.45 -3.35 -0.75 -2.7 -0.75 -1.9 -0.75 -1 -1.45 -0.4 -1.5 -0.35 -1.6 -0.2
L 1.65 3.05
Q 1.7 3.05 1.7 3 2.4 2.4 3.3 2.4 3.75 2.4 4.25 2.75
L 8.3 -3.55
Q 8 -3.75 7.75 -4.05 7.2 -4.55 7.2 -5.45 7.2 -6.35 7.75 -6.9 8.45 -7.55 9.3 -7.55 10.2 -7.55 10.75 -6.9 11.45 -6.35 11.45 -5.45 11.45 -4.55 10.75 -4.05 10.2 -3.3 9.3 -3.3 Z"/>

<path fill="#FFFFFF" stroke="none" d="
M -7.55 4.45
Q -7.6 4.3 -7.7 4.2 -8.35 3.6 -9.2 3.6 -10.1 3.6 -10.75 4.2 -11.35 4.7 -11.35 5.65 -11.35 6.55 -10.75 7.15 -10.1 7.75 -9.2 7.75 -8.35 7.75 -7.7 7.15 -7.1 6.55 -7.1 5.65 -7.1 5 -7.55 4.45
M -2.85 -4.05
Q -3.7 -4.05 -4.45 -3.35 -5 -2.7 -5 -1.9 -5 -1 -4.45 -0.4 -4.25 -0.3 -4.15 -0.1 -3.5 0.3 -2.85 0.3 -2.15 0.3 -1.6 -0.2
L -2.25 -0.8 -1.6 -0.2
Q -1.5 -0.35 -1.45 -0.4 -0.75 -1 -0.75 -1.9 -0.75 -2.7 -1.45 -3.35 -2 -4.05 -2.85 -4.05
M 4.25 2.75
Q 3.75 2.4 3.3 2.4 2.4 2.4 1.7 3 1.7 3.05 1.65 3.05 1.1 3.75 1.1 4.55 1.1 5.45 1.7 6 2.4 6.6 3.3 6.6 4.15 6.6 4.6 6 5.3 5.45 5.3 4.55 5.3 3.65 4.6 3 4.45 2.8 4.25 2.75
M 8.3 -3.55
Q 8.75 -3.3 9.3 -3.3 10.2 -3.3 10.75 -4.05 11.45 -4.55 11.45 -5.45 11.45 -6.35 10.75 -6.9 10.2 -7.55 9.3 -7.55 8.45 -7.55 7.75 -6.9 7.2 -6.35 7.2 -5.45 7.2 -4.55 7.75 -4.05 8 -3.75 8.3 -3.55 Z"/>
</g>

<path id="Mobile_Icon_Symbols_selTimeline_0_Layer0_0_1_STROKES" stroke="#FFFFFF" stroke-width="1" stroke-linejoin="round" stroke-linecap="round" fill="none" d="
M 8.3 -3.55
Q 8 -3.75 7.75 -4.05 7.2 -4.55 7.2 -5.45 7.2 -6.35 7.75 -6.9 8.45 -7.55 9.3 -7.55 10.2 -7.55 10.75 -6.9 11.45 -6.35 11.45 -5.45 11.45 -4.55 10.75 -4.05 10.2 -3.3 9.3 -3.3 8.75 -3.3 8.3 -3.55
L 4.25 2.75
Q 4.45 2.8 4.6 3 5.3 3.65 5.3 4.55 5.3 5.45 4.6 6 4.15 6.6 3.3 6.6 2.4 6.6 1.7 6 1.1 5.45 1.1 4.55 1.1 3.75 1.65 3.05
L -1.6 -0.2
Q -2.15 0.3 -2.85 0.3 -3.5 0.3 -4.15 -0.1
L -7.55 4.45
Q -7.1 5 -7.1 5.65 -7.1 6.55 -7.7 7.15 -8.35 7.75 -9.2 7.75 -10.1 7.75 -10.75 7.15 -11.35 6.55 -11.35 5.65 -11.35 4.7 -10.75 4.2 -10.1 3.6 -9.2 3.6 -8.35 3.6 -7.7 4.2 -7.6 4.3 -7.55 4.45
M 1.65 3.05
Q 1.7 3.05 1.7 3 2.4 2.4 3.3 2.4 3.75 2.4 4.25 2.75
M -4.15 -0.1
Q -4.25 -0.3 -4.45 -0.4 -5 -1 -5 -1.9 -5 -2.7 -4.45 -3.35 -3.7 -4.05 -2.85 -4.05 -2 -4.05 -1.45 -3.35 -0.75 -2.7 -0.75 -1.9 -0.75 -1 -1.45 -0.4 -1.5 -0.35 -1.6 -0.2
L -2.25 -0.8"/>
</defs>

<g transform="matrix( 0.483062744140625, 0, 0, 0.492401123046875, 9.5,9.5) ">
<g transform="matrix( 1, 0, 0, 1, 0,0) ">
<use xlink:href="#Mobile_Icon_Symbols_selTimeline_0_Layer0_0_FILL"/>

<use xlink:href="#Mobile_Icon_Symbols_selTimeline_0_Layer0_0_1_STROKES"/>
</g>
</g>
</svg>
