
<svg xmlns="http://www.w3.org/2000/svg" version="1.1" xmlns:xlink="http://www.w3.org/1999/xlink" preserveAspectRatio="none" x="0px" y="0px" width="947px" height="947px" viewBox="0 0 947 947">
<defs>
<image id="Bitmap_4" x="0" y="0" width="500" height="500" xlink:href="./images/Bitmap_4.png"/>

<g id="Layer4_0_FILL">
<path fill="#3A3A3A" stroke="none" d="
M 0 947
L 114 947 707.2 195.2 646.4 140.8 755.65 0 0 0 0 947 Z"/>

<path fill="#2A0000" stroke="none" d="
M 947 0
L 755.65 0 646.4 140.8 707.2 195.2 114 947 947 947 947 0 Z"/>
</g>

<g id="Layer4_0_STROKES_1_FILL">
<path fill="#999999" stroke="none" d="
M 654.05 137.65
Q 651.744921875 135.5744140625 648.65 135.7 645.565234375 135.8599609375 643.45 138.15 641.3794921875 140.4541015625 641.5 143.55 641.6609375 146.6396484375 643.95 148.75
L 648.35 152.75
Q 649.5974609375 153.873046875 651.05 154.35 651.683203125 155.6744140625 652.85 156.75
L 657.25 160.75
Q 658.4490234375 161.8294921875 659.85 162.3 660.4904296875 163.6974609375 661.7 164.8
L 666.2 168.8
Q 667.4478515625 169.878125 668.85 170.35 669.5056640625 171.7111328125 670.7 172.8
L 675.2 176.8
Q 676.4478515625 177.878125 677.85 178.35 678.5056640625 179.7111328125 679.7 180.8
L 684.2 184.8
Q 685.4478515625 185.878125 686.85 186.35 687.5056640625 187.7111328125 688.7 188.8
L 693.2 192.8
Q 694.4478515625 193.878125 695.85 194.35 696.5056640625 195.7111328125 697.7 196.8
L 702.2 200.8
Q 704.5607421875 202.8591796875 707.65 202.65 710.7357421875 202.49609375 712.8 200.15 714.8630859375 197.844140625 714.65 194.75 714.491015625 191.6681640625 712.15 189.6
L 707.65 185.6
Q 706.451953125 184.521875 705 184.05 704.3943359375 182.6888671875 703.15 181.6
L 698.65 177.6
Q 697.451953125 176.521875 696 176.05 695.3943359375 174.6888671875 694.15 173.6
L 689.65 169.6
Q 688.451953125 168.521875 687 168.05 686.3943359375 166.6888671875 685.15 165.6
L 680.65 161.6
Q 679.451953125 160.521875 678 160.05 677.3943359375 158.6888671875 676.15 157.6
L 671.65 153.6
Q 670.50390625 152.5677734375 669.15 152.1 668.5357421875 150.7431640625 667.35 149.65
L 662.95 145.65
Q 661.7025390625 144.5267578125 660.2 144.05 659.6166015625 142.725390625 658.45 141.65
L 654.05 137.65 Z"/>
</g>

<g id="Layer3_0_FILL">
<path fill="#000000" stroke="none" d="
M 765 758.6
Q 883.1 640.55 883.1 473.5 883.1 306.4 765 188.35 646.95 70.3 479.9 70.3 312.8 70.3 194.75 188.35 76.7 306.4 76.7 473.5 76.7 640.55 194.75 758.6 312.8 876.7 479.9 876.7 646.95 876.7 765 758.6 Z"/>
</g>

<g id="Layer2_0_FILL">
<path fill="#000000" stroke="none" d="
M 728.8 722.4
Q 831.9 619.35 831.9 473.5 831.9 327.65 728.8 224.6 625.75 121.5 479.9 121.5 334.05 121.5 230.95 224.6 127.9 327.65 127.9 473.5 127.9 619.35 230.95 722.4 334.05 825.5 479.9 825.5 625.75 825.5 728.8 722.4 Z"/>
</g>

<g id="Symbol_1_0_Layer0_0_FILL">
<path fill="#FFFFFF" stroke="none" d="
M -76.55 98.45
L -53.3 25.15 -106.9 25.15 -131.3 98.45 -76.55 98.45
M -0.9 -139.9
L -0.1 -139.9 76.95 98.45 130.65 98.45 27.7 -202.7 -31 -202.7 -90.4 -24.35 -37.6 -24.35 -0.9 -139.9 Z"/>
</g>
</defs>

<g transform="matrix( 1, 0, 0, 1, 0,0) ">
<use xlink:href="#Layer4_0_FILL"/>

<use xlink:href="#Layer4_0_STROKES_1_FILL"/>
</g>

<g transform="matrix( 1, 0, 0, 1, 0,0) ">
<use xlink:href="#Layer3_0_FILL"/>
</g>

<g transform="matrix( 1, 0, 0, 1, 0,0) ">
<use xlink:href="#Layer2_0_FILL"/>
</g>

<g transform="matrix( 1.5283203125, 0, 0, 1.5283203125, 474,530.8) ">
<g transform="matrix( 1, 0, 0, 1, 0,0) ">
<use xlink:href="#Symbol_1_0_Layer0_0_FILL"/>
</g>
</g>

<g transform="matrix( 1.89398193359375, 0, 0, 1.89398193359375, 0,0) ">
<use xlink:href="#Bitmap_4"/>
</g>
</svg>
