
<svg xmlns="http://www.w3.org/2000/svg" version="1.1" xmlns:xlink="http://www.w3.org/1999/xlink" preserveAspectRatio="none" x="0px" y="0px" width="40px" height="40px" viewBox="0 0 40 40">
<defs/>

<g id="Layer_1"/>

<g id="Layer_4">
<g transform="matrix( 0.0537567138671875, 0, 0, 0.0537567138671875, 4.05,0.45) ">
<g id="Layer_1">
<g transform="matrix( 1, 0, 0, 1, 0,120.5) ">
<g id="Layer_1">
<g transform="matrix( 1, 0, 0, 1, 0,0) ">
<g>
<g>
<path fill="#FFFFFF" stroke="none" d="
M 53.05 322.8
L 60.2 380.85 0 456.05 124.1 424.05 133.9 322.8 53.05 322.8
M 554.95 37.45
L 557.25 0 498.25 50 464.4 106.4 359.1 155.25 293.25 283.5 231.25 155.25 126 106.4 92.15 50 33.1 0 35.4 37.45 55.65 122.8 37.65 198.45 47.1 274.6 138.55 274.6 144.8 209.75 178.6 397.75 225.6 343.25 295.15 604.35 329.8 474.85 329.7 474.85 364.8 343.25 411.8 397.75 445.55 209.75 466.25 424.05 590.35 456.05 530.15 380.85 552.75 198.45 534.75 122.8 554.95 37.45 Z"/>
</g>
</g>
</g>
</g>
</g>

<g transform="matrix( 1, 0, 0, 1, 163.55,0) ">
<g id="Layer_1">
<g transform="matrix( 1, 0, 0, 1, 0,0) ">
<g>
<g>
<path fill="#990000" stroke="none" d="
M 228.95 189.55
L 35.15 189.55 35.15 218.15 228.95 218.15 228.95 189.55
M 228.05 165.95
L 263.2 74.6 179.35 144.35 131.6 0 83.85 144.35 0 74.6 35.15 165.95 228.05 165.95
M 152.15 117.75
L 133.05 138.35 113.95 117.75 132.6 59.05 152.15 117.75 Z"/>
</g>
</g>
</g>
</g>
</g>
</g>
</g>
</g>
</svg>
