
<svg xmlns="http://www.w3.org/2000/svg" version="1.1" xmlns:xlink="http://www.w3.org/1999/xlink" preserveAspectRatio="none" x="0px" y="0px" width="947px" height="947px" viewBox="0 0 947 947">
<defs>
<image id="Bitmap_4" x="0" y="0" width="500" height="500" xlink:href="./images/Bitmap_4.png"/>
</defs>

<g id="Layer_4">
<g transform="matrix( 1, 0, 0, 1, 0,0) ">
<g>
<g>
<path fill="#3A3A3A" stroke="none" d="
M 0 947
L 114 947 707.2 195.2 646.4 140.8 755.65 0 0 0 0 947 Z"/>

<path fill="#2A0000" stroke="none" d="
M 947 0
L 755.65 0 646.4 140.8 707.2 195.2 114 947 947 947 947 0 Z"/>
</g>
</g>

<use xlink:href="#Layer4_0_STROKES_1_FILL"/>
</g>
</g>

<g id="Layer_12">
<g transform="matrix( 1, 0, 0, 1, 0,0) ">
<g>
<g>
<path fill="#000000" stroke="none" d="
M 765 758.6
Q 883.1 640.55 883.1 473.5 883.1 306.4 765 188.35 646.95 70.3 479.9 70.3 312.8 70.3 194.75 188.35 76.7 306.4 76.7 473.5 76.7 640.55 194.75 758.6 312.8 876.7 479.9 876.7 646.95 876.7 765 758.6 Z"/>
</g>
</g>
</g>
</g>

<g id="Layer_14">
<g transform="matrix( 1, 0, 0, 1, 0,0) ">
<g>
<g>
<path fill="#000000" stroke="none" d="
M 728.8 722.4
Q 831.9 619.35 831.9 473.5 831.9 327.65 728.8 224.6 625.75 121.5 479.9 121.5 334.05 121.5 230.95 224.6 127.9 327.65 127.9 473.5 127.9 619.35 230.95 722.4 334.05 825.5 479.9 825.5 625.75 825.5 728.8 722.4 Z"/>
</g>
</g>
</g>
</g>

<g id="Layer_2">
<g transform="matrix( 0.8416290283203125, 0, 0, 0.8416290283203125, 225.1,168.5) ">
<g id="Layer_1">
<g transform="matrix( 1, 0, 0, 1, 0,120.5) ">
<g id="Layer_1">
<g transform="matrix( 1, 0, 0, 1, 0,0) ">
<g>
<g>
<path fill="#FFFFFF" stroke="none" d="
M 53.05 322.8
L 60.2 380.85 0 456.05 124.1 424.05 133.9 322.8 53.05 322.8
M 554.95 37.45
L 557.25 0 498.25 50 464.4 106.4 359.1 155.25 293.25 283.5 231.25 155.25 126 106.4 92.15 50 33.1 0 35.4 37.45 55.65 122.8 37.65 198.45 47.1 274.6 138.55 274.6 144.8 209.75 178.6 397.75 225.6 343.25 295.15 604.35 329.8 474.85 329.7 474.85 364.8 343.25 411.8 397.75 445.55 209.75 466.25 424.05 590.35 456.05 530.15 380.85 552.75 198.45 534.75 122.8 554.95 37.45 Z"/>
</g>
</g>
</g>
</g>
</g>

<g transform="matrix( 1, 0, 0, 1, 163.55,0) ">
<g id="Layer_1">
<g transform="matrix( 1, 0, 0, 1, 0,0) ">
<g>
<g>
<path fill="#990000" stroke="none" d="
M 228.95 218.15
L 228.95 189.55 35.15 189.55 35.15 218.15 228.95 218.15
M 263.2 74.6
L 179.35 144.35 131.6 0 83.85 144.35 0 74.6 35.15 165.95 228.05 165.95 263.2 74.6
M 152.15 117.75
L 133.05 138.35 113.95 117.75 132.6 59.05 152.15 117.75 Z"/>
</g>
</g>
</g>
</g>
</g>
</g>
</g>
</g>

<g id="Layer_11">
<g transform="matrix( 1.89398193359375, 0, 0, 1.89398193359375, 0,0) ">
<use xlink:href="#Bitmap_4"/>
</g>
</g>
</svg>
