
<svg xmlns="http://www.w3.org/2000/svg" version="1.1" xmlns:xlink="http://www.w3.org/1999/xlink" preserveAspectRatio="none" x="0px" y="0px" width="20px" height="20px" viewBox="0 0 20 20">
<defs>
<g id="back_0_Layer1_0_FILL">
<path fill="#212121" stroke="none" d="
M 17.1 8.55
Q 17.1 7.77421875 16.95 7.05 5.965234375 7.41953125 3 15.1 5.328515625 17.1 8.55 17.1 12.1 17.1 14.6 14.6 17.1 12.1 17.1 8.55 Z"/>

<path fill="#3B3B3B" stroke="none" d="
M 16.95 7.05
Q 16.561328125 4.4220703125 14.6 2.5 12.1 0 8.55 0 4.95 0 2.5 2.5 0 4.95 0 8.55 0 12.1 2.5 14.6 2.7576171875 14.862890625 3 15.1 5.965234375 7.41953125 16.95 7.05 Z"/>
</g>

<g id="power_0_Layer1_0_FILL">
<path fill="#FF0000" stroke="none" d="
M 9.8 0
L 6.75 0 7.45 6.75 9.05 6.75 9.8 0
M 16.5 9.45
Q 16.5 6.05 14.05 3.6 13.753125 3.303125 13.45 3.05
L 12.2 5.3
Q 12.263671875 5.3662109375 12.3 5.4 14 7.1 14 9.5 14 11.85 12.3 13.55 10.6 15.25 8.25 15.25 5.85 15.25 4.15 13.55 2.5 11.85 2.5 9.5 2.5 7.1 4.15 5.4 4.2166015625 5.3333984375 4.25 5.25
L 3.05 3
Q 2.7302734375 3.2697265625 2.4 3.6 0 6.05 0 9.45 0 12.85 2.4 15.25 4.85 17.7 8.25 17.7 11.65 17.7 14.05 15.25 16.5 12.85 16.5 9.45 Z"/>
</g>
</defs>

<g transform="matrix( 1.111114501953125, 0, 0, 1.111114501953125, 0.5,0.5) ">
<g transform="matrix( 1, 0, 0, 1, 0,0) ">
<use xlink:href="#back_0_Layer1_0_FILL"/>
</g>
</g>

<g transform="matrix( 0.7664337158203125, 0, 0, 0.7664337158203125, 3.65,3.2) ">
<g transform="matrix( 1, 0, 0, 1, 0,0) ">
<use xlink:href="#power_0_Layer1_0_FILL"/>
</g>
</g>
</svg>
